# Blender v2.76 (sub 0) OBJ File: 'bird_plane.blend'
# www.blender.org
o Plane
v 101.584503 25.193878 0.000000
v 142.452133 96.873924 0.000000
v 100.947556 118.010841 0.000000
v 111.738297 104.140366 0.000000
v 90.313095 103.873779 0.000000
v 58.955769 96.497025 0.000000
v 12.169418 72.059189 0.000000
v 10.301285 42.798988 0.000000
v 92.826195 71.410957 0.000000
v 109.952515 71.505180 0.000000
v 191.887024 42.987442 0.000000
v 189.788727 72.341866 0.000000
v 94.836372 52.737022 0.000000
v 94.604828 43.348701 0.000000
v 83.799591 36.276955 0.000000
v 82.685074 32.102398 0.000000
v 120.399773 32.121246 0.000000
v 119.213631 36.314648 0.000000
v 108.270966 43.405239 0.000000
v 107.990883 52.812408 0.000000
v 97.136787 32.098274 0.000000
v 99.259293 29.890915 0.000000
v 100.025482 27.542082 0.000000
v 103.132248 27.544550 0.000000
v 103.887169 29.894588 0.000000
v 105.978775 32.112408 0.000000
v 106.342926 116.526840 0.000000
v 95.630325 116.393547 0.000000
v 100.415237 26.955032 0.000000
v 100.804993 26.367981 0.000000
v 101.194748 25.780930 0.000000
v 177.954590 78.474884 0.000000
v 166.120422 84.607895 0.000000
v 154.286285 90.740906 0.000000
v 134.773682 98.690536 0.000000
v 127.095215 100.507141 0.000000
v 119.416748 102.323753 0.000000
v 104.994087 116.897842 0.000000
v 103.645241 117.268845 0.000000
v 102.296402 117.639839 0.000000
v 94.301018 113.263603 0.000000
v 92.971710 110.133667 0.000000
v 91.642410 107.003731 0.000000
v 82.473770 102.029594 0.000000
v 74.634430 100.185402 0.000000
v 66.795105 98.341209 0.000000
v 47.259182 90.387558 0.000000
v 35.562592 84.278107 0.000000
v 23.866005 78.168648 0.000000
v 11.702385 64.744141 0.000000
v 11.235352 57.429089 0.000000
v 10.768318 50.114040 0.000000
v 30.932510 49.951981 0.000000
v 51.563744 57.104973 0.000000
v 72.194969 64.257965 0.000000
v 108.481293 57.485600 0.000000
v 108.971695 62.158794 0.000000
v 109.462105 66.831985 0.000000
v 130.436142 64.375748 0.000000
v 150.919769 57.246311 0.000000
v 171.403397 50.116875 0.000000
v 191.362457 50.326046 0.000000
v 190.837875 57.664654 0.000000
v 190.313293 65.003265 0.000000
v 93.328735 66.742470 0.000000
v 93.831284 62.073990 0.000000
v 94.333832 57.405506 0.000000
v 94.778488 50.389942 0.000000
v 94.720596 48.042862 0.000000
v 94.662712 45.695782 0.000000
v 91.903519 41.580765 0.000000
v 89.202209 39.812828 0.000000
v 86.500900 38.044891 0.000000
v 83.520958 35.233315 0.000000
v 83.242325 34.189674 0.000000
v 82.963699 33.146038 0.000000
v 109.584023 32.114616 0.000000
v 113.189270 32.116825 0.000000
v 116.794525 32.119034 0.000000
v 120.103233 33.169594 0.000000
v 119.806702 34.217945 0.000000
v 119.510162 35.266296 0.000000
v 116.477966 38.087296 0.000000
v 113.742294 39.859943 0.000000
v 111.006630 41.632591 0.000000
v 108.200943 45.757030 0.000000
v 108.130920 48.108822 0.000000
v 108.060898 50.460613 0.000000
v 86.297997 32.101368 0.000000
v 89.910927 32.100338 0.000000
v 93.523857 32.099304 0.000000
v 97.667412 31.546434 0.000000
v 98.198036 30.994595 0.000000
v 98.728668 30.442755 0.000000
v 99.450836 29.303707 0.000000
v 99.642387 28.716497 0.000000
v 99.833931 28.129288 0.000000
v 101.971436 25.781548 0.000000
v 102.358376 26.369215 0.000000
v 102.745316 26.956881 0.000000
v 103.320984 28.132059 0.000000
v 103.509712 28.719568 0.000000
v 103.698441 29.307079 0.000000
v 104.410072 30.449043 0.000000
v 104.932968 31.003498 0.000000
v 105.455872 31.557953 0.000000
v 110.389450 107.236984 0.000000
v 109.040611 110.333603 0.000000
v 107.691765 113.430214 0.000000
v 99.618248 117.606522 0.000000
v 98.288940 117.202194 0.000000
v 96.959633 116.797867 0.000000
vn 0.000000 0.000000 1.000000
s off
f 29//1 100//1 24//1
f 109//1 27//1 38//1
f 38//1 39//1 109//1
f 40//1 3//1 110//1
f 110//1 111//1 40//1
f 112//1 28//1 41//1
f 41//1 42//1 108//1
f 5//1 44//1 9//1
f 112//1 41//1 111//1
f 44//1 45//1 9//1
f 42//1 43//1 107//1
f 40//1 111//1 109//1
f 109//1 39//1 40//1
f 107//1 108//1 42//1
f 2//1 35//1 59//1
f 108//1 109//1 41//1
f 34//1 2//1 59//1
f 4//1 107//1 43//1
f 35//1 36//1 59//1
f 109//1 111//1 41//1
f 36//1 10//1 59//1
f 12//1 32//1 64//1
f 33//1 34//1 60//1
f 4//1 43//1 5//1
f 46//1 6//1 55//1
f 4//1 5//1 9//1
f 32//1 61//1 64//1
f 62//1 63//1 61//1
f 32//1 60//1 61//1
f 45//1 55//1 9//1
f 47//1 48//1 54//1
f 49//1 7//1 50//1
f 50//1 51//1 53//1
f 52//1 8//1 53//1
f 53//1 54//1 49//1
f 9//1 65//1 58//1
f 54//1 55//1 47//1
f 51//1 52//1 53//1
f 48//1 49//1 54//1
f 37//1 10//1 36//1
f 11//1 62//1 61//1
f 60//1 32//1 33//1
f 57//1 58//1 65//1
f 59//1 60//1 34//1
f 20//1 56//1 67//1
f 10//1 37//1 4//1
f 87//1 88//1 68//1
f 61//1 63//1 64//1
f 86//1 87//1 69//1
f 10//1 4//1 9//1
f 19//1 86//1 70//1
f 49//1 50//1 53//1
f 84//1 85//1 77//1
f 47//1 55//1 6//1
f 83//1 84//1 78//1
f 46//1 55//1 45//1
f 82//1 18//1 79//1
f 58//1 10//1 9//1
f 18//1 83//1 79//1
f 56//1 66//1 67//1
f 81//1 82//1 79//1
f 88//1 20//1 13//1
f 65//1 66//1 57//1
f 68//1 69//1 87//1
f 57//1 66//1 56//1
f 14//1 71//1 21//1
f 20//1 67//1 13//1
f 71//1 72//1 91//1
f 88//1 13//1 68//1
f 72//1 73//1 90//1
f 86//1 69//1 70//1
f 73//1 89//1 90//1
f 19//1 70//1 14//1
f 80//1 81//1 79//1
f 79//1 17//1 80//1
f 26//1 85//1 19//1
f 78//1 79//1 83//1
f 84//1 77//1 78//1
f 15//1 89//1 73//1
f 76//1 16//1 89//1
f 74//1 75//1 89//1
f 85//1 26//1 77//1
f 105//1 106//1 93//1
f 26//1 19//1 21//1
f 75//1 76//1 89//1
f 90//1 91//1 72//1
f 74//1 89//1 15//1
f 106//1 26//1 92//1
f 25//1 104//1 22//1
f 101//1 102//1 97//1
f 104//1 105//1 94//1
f 24//1 101//1 23//1
f 103//1 25//1 95//1
f 71//1 91//1 21//1
f 21//1 92//1 26//1
f 22//1 95//1 25//1
f 92//1 93//1 106//1
f 96//1 97//1 102//1
f 93//1 94//1 105//1
f 95//1 96//1 103//1
f 23//1 29//1 24//1
f 30//1 31//1 99//1
f 99//1 100//1 30//1
f 31//1 1//1 98//1
f 98//1 99//1 31//1
f 102//1 103//1 96//1
f 14//1 21//1 19//1
f 97//1 23//1 101//1
f 30//1 100//1 29//1
f 104//1 94//1 22//1
